# xmcd CD database file
#
# Track frame offsets:
#	150
#	19440
#	39845
#	56717
#	79425
#	98447
#	117470
#	135137
#	151885
#	174352
#	195115
#	218770
#	238909
#	255322
#	259182
#	279899
#	299770
#	303242
#	305377
#
# Disc length: 4142 seconds
#
# Revision: 2
# Processed by: cddbd v1.5.2PL0 Copyright (c) Steve Scherf et al.
# Submitted via: CDex 1.70beta2
#
DISCID=fb102c13
DTITLE=EPO - epocha 1980-1986 DISC-02
DYEAR=1999
DGENRE=J-POP(J)
TTITLE0=う・ふ・ふ・ふ
TTITLE1=うわさになりたい
TTITLE2=真夏の青写真
TTITLE3=雨のめぐり逢い
TTITLE4=ある日の貴方へ
TTITLE5=土曜の夜はパラダイス
TTITLE6=五分遅れで見かけた人へ
TTITLE7=CARPENTERS medley
TTITLE8=無言のジェラシー (single version)
TTITLE9=かなしいともだち
TTITLE10=朝のドライブ
TTITLE11=こぬか雨 (edit version)
TTITLE12=くちびるヌード・咲かせます (edit version)
TTITLE13=Any Time (mono)
TTITLE14=私について
TTITLE15=12月のエイプリル・フール
TTITLE16=P&Gアリエール・ピュアクリーン「台紙」篇'97
TTITLE17=爽健美茶コマーシャルソング
TTITLE18=MAKINGシーン「う・ふ・ふ・ふ」
EXTD=YEAR: 1999
EXTT0=
EXTT1=
EXTT2=
EXTT3=
EXTT4=
EXTT5=
EXTT6=
EXTT7=
EXTT8=
EXTT9=
EXTT10=
EXTT11=
EXTT12=
EXTT13=
EXTT14=
EXTT15=
EXTT16=
EXTT17=
EXTT18=
PLAYORDER=
